<?xml version="1.0" standalone="no"?>
<!DOCTYPE svg PUBLIC "-//W3C//DTD SVG 20010904//EN"
 "http://www.w3.org/TR/2001/REC-SVG-20010904/DTD/svg10.dtd">
<svg version="1.0" xmlns="http://www.w3.org/2000/svg"
 width="510.000000pt" height="497.000000pt" viewBox="0 0 510.000000 497.000000"
 preserveAspectRatio="xMidYMid meet">

<g transform="translate(0.000000,497.000000) scale(0.100000,-0.100000)"
fill="#000000" stroke="none">
<path d="M2347 4960 c-61 -16 -112 -46 -153 -93 -29 -33 -110 -198 -328 -668
-158 -343 -291 -627 -295 -632 -4 -4 -121 278 -259 626 -204 513 -258 639
-283 663 l-30 29 -447 3 c-430 2 -448 1 -479 -17 -18 -11 -40 -35 -50 -53 -17
-31 -18 -136 -18 -2288 0 -1790 3 -2264 13 -2297 28 -94 121 -187 215 -215 62
-19 376 -13 439 8 64 21 143 94 177 163 15 31 180 401 366 824 186 422 341
767 344 767 3 0 147 -350 320 -778 173 -427 325 -798 337 -823 31 -62 112
-133 177 -156 37 -13 82 -18 157 -18 141 0 196 19 270 94 62 62 40 11 551
1278 85 210 156 383 159 383 3 0 162 -356 354 -790 249 -563 359 -802 384
-830 62 -73 104 -90 305 -126 242 -42 412 18 489 173 l23 48 3 2278 c2 2519 8
2315 -61 2358 -31 18 -49 19 -479 17 l-447 -3 -30 -29 c-24 -23 -81 -155 -283
-662 -139 -349 -255 -634 -258 -634 -3 0 -68 141 -144 313 -412 925 -428 960
-473 1005 -77 77 -109 86 -333 88 -107 2 -212 -1 -233 -6z m262 -1176 c15 -9
33 -25 40 -36 14 -23 491 -1095 499 -1122 5 -17 -586 -1516 -599 -1516 -3 0
-143 344 -311 765 l-306 765 244 553 c271 615 267 607 355 607 29 0 63 -7 78
-16z m1719 -1516 l-3 -493 -208 464 -207 464 207 512 208 512 3 -483 c1 -265
1 -704 0 -976z m-3344 940 l197 -486 -205 -444 -206 -443 0 945 c1 520 4 938
9 930 4 -8 97 -234 205 -502z"/>
</g>
</svg>
